<svg width="830" height="220" viewBox="0 0 830 220" fill="none" xmlns="http://www.w3.org/2000/svg">
<rect width="830" height="220" fill="#79009A"/>
<path d="M359.363 95.25V123.75L334.682 138L310 123.75V95.25L334.682 81L321.079 94.8789H348.284L334.682 81L359.363 95.25ZM327.121 110.128V123.836L334.738 130.689L342.356 123.836V110.128L334.738 103.274L327.121 110.128ZM388.021 97C390.475 97 392.542 97.2798 394.222 97.8398C395.928 98.3998 397.208 99.1869 398.062 100.2C398.915 101.213 399.342 102.44 399.342 103.88C399.342 105.427 398.875 106.76 397.941 107.88C397.249 108.691 396.293 109.317 395.073 109.761C395.838 110.01 396.568 110.328 397.262 110.72C398.328 111.28 399.181 112.04 399.821 113C400.488 113.96 400.821 115.133 400.821 116.52C400.821 118.226 400.461 119.626 399.741 120.72C399.021 121.813 398.075 122.68 396.901 123.32C395.728 123.934 394.448 124.373 393.062 124.64C391.702 124.88 390.368 125 389.062 125H372.062V97H388.021ZM442.567 125H435.527L433.054 120.04H417.755L415.287 125H408.407L422.327 97H428.728L442.567 125ZM477.814 115.969C477.709 115.252 477.618 114.555 477.541 113.88C477.461 112.947 477.394 112.053 477.341 111.2C477.287 110.347 477.247 109.52 477.221 108.72C477.194 107.92 477.167 107.12 477.141 106.32V97H483.74V125H477.181L458.13 106.205C458.196 106.66 458.255 107.165 458.301 107.72C458.381 108.36 458.448 109.08 458.501 109.88C458.581 110.653 458.634 111.52 458.661 112.48C458.688 113.44 458.701 114.493 458.701 115.64V125H452.101V97H458.581L477.814 115.969ZM520.171 103H512.611V119H520.171V125H498.291V119H505.812V103H498.291V97H520.171V103ZM378.462 119.32H389.222C390.155 119.32 390.981 119.213 391.701 119C392.448 118.787 393.035 118.453 393.462 118C393.915 117.52 394.142 116.92 394.142 116.2C394.142 115.374 393.862 114.747 393.302 114.32C392.742 113.867 392.062 113.56 391.262 113.4C390.462 113.214 389.715 113.12 389.021 113.12H378.462V119.32ZM425.397 104.338C425.265 104.665 425.123 104.993 424.968 105.32C424.754 105.827 424.527 106.347 424.287 106.88C424.047 107.387 423.794 107.907 423.527 108.44L420.303 114.92H430.5L427.248 108.4C426.955 107.814 426.687 107.266 426.447 106.76C426.207 106.227 425.981 105.72 425.768 105.24C425.639 104.935 425.516 104.634 425.397 104.338ZM378.462 108H388.102C388.982 108 389.755 107.893 390.422 107.68C391.115 107.466 391.648 107.16 392.021 106.76C392.421 106.36 392.622 105.853 392.622 105.24C392.622 104.307 392.155 103.654 391.222 103.28C390.315 102.88 389.195 102.68 387.861 102.68H378.462V108Z" fill="white"/>
</svg>
